<svg xmlns="http://www.w3.org/2000/svg" viewBox="0 0 512 512" width="512" height="512">
  <defs>
    <linearGradient id="g" x1="0" y1="0" x2="1" y2="1">
      <stop offset="0" stop-color="#a3e635"/>
      <stop offset="1" stop-color="#65a30d"/>
    </linearGradient>
    <linearGradient id="s" x1="0" y1="0" x2="0" y2="1">
      <stop offset="0" stop-color="#ffffff"/>
      <stop offset="1" stop-color="#c9ced6"/>
    </linearGradient>
  </defs>
  <!-- fondo negro -->
  <rect width="512" height="512" rx="112" fill="#070708"/>
  <!-- triángulo de play (contorno verde, esquinas redondeadas) -->
  <path d="M150 118 L408 256 L150 394 Z" fill="none" stroke="url(#g)" stroke-width="30" stroke-linejoin="round" stroke-linecap="round"/>
  <!-- monograma TF -->
  <g font-family="Arial Black, Arial, sans-serif" font-weight="900" font-style="italic">
    <text x="128" y="290" font-size="190" fill="url(#s)">T</text>
    <text x="218" y="330" font-size="165" fill="url(#g)">F</text>
  </g>
  <!-- balón con estela -->
  <g>
    <path d="M212 400 q42 -6 84 -18" stroke="#65a30d" stroke-width="7" fill="none" stroke-linecap="round" opacity="0.85"/>
    <path d="M220 414 q40 -4 78 -14" stroke="#d7dbe0" stroke-width="5" fill="none" stroke-linecap="round" opacity="0.7"/>
    <circle cx="322" cy="384" r="34" fill="#ffffff"/>
    <g fill="#0b0b0d">
      <polygon points="322,366 336,376 331,392 313,392 308,376"/>
      <path d="M322 350 l6 8 -6 4 -6 -4 z"/>
      <path d="M292 380 l8 -6 4 7 -6 6 z"/>
      <path d="M352 380 l-8 -6 -4 7 6 6 z"/>
      <path d="M306 408 l6 -7 10 3 0 8 z"/>
      <path d="M338 408 l-6 -7 -10 3 0 8 z"/>
    </g>
  </g>
</svg>
